<svg id="Layer_1" data-name="Layer 1" xmlns="http://www.w3.org/2000/svg" viewBox="0 0 1000.66 920.78"><defs><style>.cls-1{fill:#fff;}.cls-2{fill:#f17c0a;}.cls-3{fill:none;}</style></defs><path class="cls-1" d="M1446.57,1283.19l8.26-174-22.93-3.55v-108C1425,863.05,1314.49,857.4,1314.49,857.4H1189.76l34.81-50.23,17.1-24.68-8.05,1.41c-28.82-159.63-168.4-284.29-336.29-284.29-188.74,0-341.76,153-341.76,341.76,0,3.44-.1,20.34-.06,29.78L459.67,997.71s3.89,43.41,6.65,50.29S716,1127.79,716,1127.79c-62.6,39.21-91.49,101.81-88,155.4s39.21,70.23,39.21,70.23,48.84,81.17,145.15,64.79S927.9,1301.83,927.9,1301.83c27.51-8.94,32.1,35.08,32.1,35.08l86.67-5.05c14.68,32.55,46.78,49.08,46.78,49.08l33.94.92c155.28,102.75,227-44.95,227-44.95l38.5,7.57,67.47-10Zm-224.38-494q.72,4.45,1.31,8.95C1223.1,795.15,1222.67,792.16,1222.19,789.19Zm-98.47,13.91L1038.26,752l-25.75,19.13-.46-.3-3.9,2.89L843.81,665.52l-39.28,55H773.35l-52.78,80.71-5.91-2.75-.8,1.22-77.15-35.82-61.88,81.72,52.86-85.91,9,4.19.89-1.17,77.06,35.77,54-82.61h32.38l40.79-57.15,170.21,112.1,25.73-19.12.48.29,5-3.73,89.15,53.28Z" transform="translate(-459.67 -499.61)"/><polygon class="cls-1" points="254.99 298.91 254.19 300.13 177.04 264.31 177.93 263.14 254.99 298.91"/><polygon class="cls-1" points="578.59 252.42 552.84 271.55 552.38 271.25 578.11 252.13 578.59 252.42"/><path class="cls-2" d="M720.57,801.27l52.78-80.71h31.18l39.28-55,164.34,108.22,29.63-22,85.94,51.37,98-17.12c-26.33-155.38-161.55-273.71-324.43-273.71-181.75,0-329.08,147.34-329.08,329.08,0,4.27.1,8.51.27,12.74l69.17-91.35Z" transform="translate(-459.67 -499.61)"/><polygon class="cls-1" points="254.99 298.91 254.19 300.13 177.04 264.31 177.93 263.14 254.99 298.91"/><polygon class="cls-1" points="578.59 252.42 552.84 271.55 552.38 271.25 578.11 252.13 578.59 252.42"/><path d="M1180.43,980.56v17.15c0-4.77,0-9.54-.11-14.3A22.93,22.93,0,0,1,1180.43,980.56Z" transform="translate(-459.67 -499.61)"/><path d="M1180.43,997.71v33.91C1180.28,1020.32,1180.43,1009,1180.43,997.71Z" transform="translate(-459.67 -499.61)"/><path d="M1268.63,1153.94a19,19,0,0,1,3.92-.52c29.4,1.92,58.8,3.78,88.16,6.12,2.13.17,5.31,3.64,5.75,6q6.15,32.81,11.41,65.77c4.68,29.29,11.14,58.35,10.4,88.34-.3,12.24.4,12.74-11.56,12a56.39,56.39,0,0,1-17.87-4.69c-1.81-.77-3.14-5.25-2.91-7.88,1.18-13.36,4.53-26.71,4.24-40-1.23-55.26-35.15-101.89-87.17-122.55a34.29,34.29,0,0,0-4.67-1.17Z" transform="translate(-459.67 -499.61)"/><path class="cls-1" d="M1225.76,1216.35a66.73,66.73,0,0,1,67.37,66.66c-.05,36.07-30.51,67.12-66.54,67-36.76-.1-67.2-29.13-67.46-66.61S1188.24,1216.51,1225.76,1216.35Zm-51,66.62a51.1,51.1,0,0,0,51.18,51.53c28.26.14,52.23-23.88,52-52.11-.21-27.84-23.87-50.84-52.19-50.75C1196.88,1231.74,1174.67,1254.08,1174.73,1283Z" transform="translate(-459.67 -499.61)"/><path class="cls-1" d="M788.1,1216.36c36.81.16,66.71,30.3,66.38,66.9-.33,36.78-31.07,67.6-67.61,66.75-37-.87-66.21-29.71-66.3-67.29C720.49,1246.32,750.88,1215,788.1,1216.36Zm-51.73,66.84c-1.34,27.32,22.38,51.19,51.2,51.28,28.06.09,51.78-23.64,51.74-51.46,0-28.5-23.52-51.14-52.32-51.48C760.6,1231.24,734.71,1254.64,736.37,1283.2Z" transform="translate(-459.67 -499.61)"/><path class="cls-1" d="M954.24,841.32,711.62,879.93c16.58-24.87,31.58-47.38,46.59-69.88,9.11-13.66,18-27.45,27.51-40.84,2.06-2.92,7-6.81,9.26-6.09,17.58,5.56,25.13-5.61,33-17.75C835.4,734,843.78,723.27,852.6,711Z" transform="translate(-459.67 -499.61)"/><path class="cls-1" d="M557.8,901c9.2-8.89,18.45-17.73,27.6-26.66,20.3-19.8,40.67-39.53,60.72-59.58,4.32-4.32,7.59-4.71,12.81-1.63,8.73,5.15,18.15,9.12,26.92,14.2,2.18,1.27,4.64,5.2,4.2,7.35-3,14.79-7,29.39-10.16,44.16-1.06,4.92-3.54,6.79-8.22,7.52-15.76,2.45-31.47,5.3-47.22,7.83-18.48,3-37,5.78-55.48,8.58-3.19.48-6.45.57-9.68.83C558.8,902.77,558.3,901.91,557.8,901Z" transform="translate(-459.67 -499.61)"/><path class="cls-1" d="M1099.77,817.94c-12.93,2.15-25.86,4.34-38.81,6.43-24.65,4-49.3,8-74,11.72-3.68.54-7.65-.84-11.49-1.33,2.67-2.72,4.92-6.1,8.07-8,18.37-11.37,36.82-22.62,55.58-33.33,3.57-2,9.49-3.35,12.85-1.8,16.32,7.52,32.13,16.13,48.11,24.36Z" transform="translate(-459.67 -499.61)"/><path d="M1174.73,1283c-.06-28.89,22.15-51.23,51-51.33,28.32-.09,52,22.91,52.19,50.75.21,28.23-23.76,52.25-52,52.11A51.1,51.1,0,0,1,1174.73,1283Zm52.81,44.39c26.89.14,43.89-23.27,43.71-45.19-.21-24.85-21.93-45-46.88-44.27s-44.64,22.07-43.54,47.43C1181.72,1305.82,1199.68,1329.16,1227.54,1327.36Z" transform="translate(-459.67 -499.61)"/><path d="M736.37,1283.2c-1.66-28.56,24.23-52,50.62-51.66,28.8.34,52.28,23,52.32,51.48,0,27.82-23.68,51.55-51.74,51.46C758.75,1334.39,735,1310.52,736.37,1283.2Zm6.35-.29c-1.7,20.11,17.44,45.08,45,44.71a45.12,45.12,0,0,0,44.85-44.32c.54-24.48-20.36-45.36-45-45.39C762.36,1237.87,742.69,1257.58,742.72,1282.91Z" transform="translate(-459.67 -499.61)"/><path class="cls-3" d="M788.1,1216.36c-37.22-1.37-67.61,30-67.53,66.36.09,37.58,29.35,66.42,66.3,67.29,36.54.85,67.28-30,67.61-66.75C854.81,1246.66,824.91,1216.52,788.1,1216.36Z" transform="translate(-459.67 -499.61)"/><path d="M1121.3,1367.52a137.9,137.9,0,0,1-28.27-63.13c-10.09-57.48,21.93-118.36,75.27-142.72,9.11-4.16,18.66-7.38,28.78-11.33-1.52-.78-2.38-1.56-3.29-1.63-20.89-1.54-41.79-3.1-62.7-4.31-1.92-.11-4.46,1.68-5.88,3.32-8.48,9.74-16.63,19.77-25.09,29.52-2.06,2.37-5.4,6.18-7.27,5.72-7.45-1.81-14.55-5-22.42-8,13.29-20.63,25.39-39.55,37.71-58.34a8.79,8.79,0,0,1,5.25-3.16,156.88,156.88,0,0,1,19.56-3.08c6.09-.45,8.72-2.8,8.92-9.12.47-15.14,1.91-30.26,2.18-45.41.12-6.88,2.6-9.4,9.2-9.19,4.67.15,9.36-.34,14-.65s7-2.56,6.84-7.42c-.22-6.89.16-13.82-.53-20.65-.16-1.69-4-4.73-5.21-4.32-9.49,3.27-18.29,6.61-24.62,16.19-31.77,48-64.47,95.4-96.74,143.07-3.19,4.72-6.81,5.45-12,3.65-8.54-3-17.24-5.5-25.93-8-37.71-11-75.46-21.76-113.15-32.77-24.51-7.15-48.92-14.67-73.43-21.83-37.69-11-75.45-21.78-113.13-32.8-24.51-7.17-48.9-14.74-73.41-21.91q-56.93-16.64-113.93-33c-14.36-4.14-28.75-8.21-44.62-12.73,0,8,.22,14.32-.06,20.57-.26,5.53,1.71,8.32,7.34,10q56.94,16.56,113.69,33.75c38.91,11.72,77.73,23.74,116.66,35.4,9.37,2.8,6.07,11.28,8.14,17.18.65,1.88-2.38,6.18-4.79,7.83-40.41,27.73-69.48,63.37-79.8,112.44-5.91,28.11-2.87,54.73,13.2,79,4.19,6.34,9.73,11.8,14.65,17.66-2.81-12.22-6.65-23.24-9.7-34.49-8.22-30.31-4.46-59.91,9.38-87.46,24-47.81,63-74.66,117.2-76.31,51.22-1.55,90.48,20.47,118.32,63.22,13.76,21.12,19.79,44.59,20.31,69.51.13,6.56,2.11,8.81,8.61,8.27a86.77,86.77,0,0,1,18.16.28,10.2,10.2,0,0,1,6.85,5.07,254.78,254.78,0,0,1,9.32,24.6c1.65,5,4.27,6.94,9.66,6.56,17.87-1.27,35.81-1.64,53.64-3.31,11.86-1.11,25.52-3.85,31.34,8.21,1.72,3.55,8.89,15.86,11.92,18.61,9.92,9,12.37,12.5,23.7,22.58h32.49A25.73,25.73,0,0,1,1121.3,1367.52Zm-53.24-59.33a184.77,184.77,0,0,0-20.65-.32c-6.77.29-10-2.63-9.4-9.19.69-7.91-2.54-10.64-10.42-10.26-9.88.47-19.83.1-29.73-.42-6.49-.34-9.19,1.91-8.38,8.53.42,3.46.07,7,.07,11-18,2.07-18,2.06-17.74-14.09q.75-37.58,1.65-75.14c0-2.15.42-4.28.74-7.43h18.22c24.23,0,48.47.12,72.71-.2,6-.08,8.33,1.6,8.41,7.79.34,27.53,1,55.06,1.65,82.58C1075.32,1306.23,1073.63,1308.58,1068.06,1308.19Z" transform="translate(-459.67 -499.61)"/><path class="cls-3" d="M1225.75,1216.35c-37.51.17-66.88,29.7-66.62,67.07s30.7,66.51,67.46,66.61c36,.1,66.49-31,66.54-67A66.74,66.74,0,0,0,1225.75,1216.35Z" transform="translate(-459.67 -499.61)"/><path d="M1353.89,1269.73a118.28,118.28,0,0,0-8.14-33.09c-4.57.32-17.4.32-5.21-11.38q-1.49-2.91-3.12-5.77a129.64,129.64,0,0,0-16.2-22.45c-4.09,1.9-16.37,6.61-8.89-9a126.73,126.73,0,0,0-34.78-22.52c-2.87,3.16-12.68,12.75-11.8-4.46a129.06,129.06,0,0,0-50.08-5.81c-1.05,4.54-4.76,16.52-12.37,1.61a128.92,128.92,0,0,0-40.48,14.56c.68,3.66,2.8,18.67-10.83,6.84a125.32,125.32,0,0,0-30.71,30.81c2.33,3,11.18,15.41-6.85,11a130.56,130.56,0,0,0-14.33,40c4,2,15.74,8.82-1.69,12.64a129.41,129.41,0,0,0,3.6,43.06c4.44-.06,18.39.6,3.88,12.38a125,125,0,0,0,20.4,35.6c4.6-2.11,15.58-5.94,8.12,9.69a168.59,168.59,0,0,0,32.6,21.27c3-3.31,12.74-12.83,11.72,5.13a126.8,126.8,0,0,0,46.45,8.59c1.58-3.73,7.57-16,12.38-.67a145.58,145.58,0,0,0,48.4-14.11c-.63-4.32-1.74-17.9,11.19-6a130.35,130.35,0,0,0,19-13.26c7.32-6.35,11.52-13.14,5.48-22.84-.91-1.48-.23-5.36,1.09-6.43s4.91-.81,6.56.29c4.81,3.2,8,3.13,10-2.83s4.2-11.85,6.3-17.78c-3.06-2.45-14.24-12.3,4-12.21.76-2.63,1.46-5.27,2-7.94a114.85,114.85,0,0,0,2.67-22.15C1350.88,1281.24,1336.86,1275.43,1353.89,1269.73Zm-127.3,80.3c-36.76-.1-67.2-29.13-67.46-66.61s29.11-66.9,66.62-67.07a66.74,66.74,0,0,1,67.38,66.66C1293.08,1319.08,1262.62,1350.13,1226.59,1350Z" transform="translate(-459.67 -499.61)"/><path d="M915.4,1291.93a130,130,0,0,0-.07-17.64,134.37,134.37,0,0,0-6-31.56c-4.57.3-18,.3-4.55-12a124.18,124.18,0,0,0-26.57-38.33c-1.28.55-19,7.94-9.63-8.72l-1.08-.9A124.63,124.63,0,0,0,816,1158c-2.26,3.89-9.62,14.81-12.41-2.15a131,131,0,0,0-58,5.9c.27,4.57.15,17.83-11.85,4.69a124.89,124.89,0,0,0-17.24,9.57,136.3,136.3,0,0,0-22,18.09c.16.33,9.35,19.24-8.66,9.85a117,117,0,0,0-20.72,40.35c-.34,1.16-.65,2.32-1,3.47,3.25,2.2,15,11-2.78,12.47-3.52,19.57-2.8,38.21,2,55.93,3.73.16,19,1.49,4.06,12.22a135.39,135.39,0,0,0,15,27.78l.09.13c.47.54,2.5,2.83,5.89,6.17,4.2-2.69,15-8.32,9.43,8.65l1.79,1.51A175.32,175.32,0,0,0,743,1399.52c2.79-3.12,12.69-13,11.88,4.41,22.87,7.29,49.71,9,78.32-2.94-.63-4.33-1.82-18.33,11.67-5.58a159.6,159.6,0,0,0,31.6-22.8c1.54-1.4,3.08-2.86,4.62-4.35-1.26-3.73-5-17,8.63-8.87q1.47-1.59,2.92-3.22v0c11-16.1,18.24-33.23,21.33-51.61C909.83,1302.59,898.3,1296.14,915.4,1291.93ZM786.87,1350c-37-.87-66.21-29.71-66.3-67.29-.08-36.4,30.31-67.73,67.53-66.36,36.81.16,66.71,30.3,66.38,66.9C854.15,1320,823.41,1350.86,786.87,1350Z" transform="translate(-459.67 -499.61)"/><path d="M1440.43,1317.23c-5.31-14.36-8.1-28.92-6.58-44.41,1.32-13.42,1.5-27,1.92-40.46,1-33.33,1.76-66.67,3-100,.28-7.22-2-9.91-9.13-10a53.91,53.91,0,0,1-15.43-2.51c-2.38-.74-5.36-3.63-5.74-5.93V993.07a113,113,0,0,0-7-39.34H1298.15a3.67,3.67,0,1,1,0-7.34h100.32a112.41,112.41,0,0,0-7.18-13.34h-65.75a3.67,3.67,0,0,1,0-7.34h60.75a113,113,0,0,0-90.91-45.78h-115v151.69c0,3.22.1,6.44.2,9.66a19.89,19.89,0,0,1-.2,3.76c-.82,5.28-4.14,7-10.3,7.1s-12.56.73-19.05,1.14c-.75,13.52-1.3,26.44-2.22,39.32-1.5,21.13-1.6,21.11-22,24.94-2.44.45-5,.61-7.24,1.62-3.24,1.5-7.19,2.95-9,5.64-9.17,13.3-17.73,27-26.54,40.55-3.35,5.16-3.26,9,4,9.19,2.58.07,6-.51,7.66-2.17,4.44-4.41,8.23-9.49,12.12-14.44,16.7-21.25,16.66-21.09,39.66-19.51q107.63,7.39,215.29,14.42c6.38.42,9.08,2.55,10.07,9.07,3.46,22.84,7.93,45.52,11.33,68.36,3.67,24.72,6.71,49.54,9.72,74.35.8,6.54-.08,13.29.9,19.78.41,2.68,3.74,7.06,5.66,7,14-.29,27.92-1.51,43.13-2.52C1442.29,1324.05,1441.65,1320.53,1440.43,1317.23Zm-146-342.82h83.26a15.12,15.12,0,0,1,15.12,15.12v55.19h-98.38Z" transform="translate(-459.67 -499.61)"/><path class="cls-3" d="M1039.12,793.39c-18.76,10.71-37.21,22-55.58,33.33-3.15,1.94-5.4,5.32-8.07,8,3.84.49,7.81,1.87,11.49,1.33,24.7-3.68,49.35-7.74,74-11.72,13-2.09,25.88-4.28,38.81-6.43.11-.66.21-1.33.31-2-16-8.23-31.79-16.84-48.11-24.36C1048.61,790,1042.69,791.35,1039.12,793.39Z" transform="translate(-459.67 -499.61)"/><path class="cls-3" d="M685.85,827.37c-8.77-5.08-18.19-9-26.92-14.2-5.22-3.08-8.49-2.69-12.81,1.63-20,20.05-40.42,39.78-60.72,59.58-9.15,8.93-18.4,17.77-27.6,26.66.5.87,1,1.73,1.49,2.6,3.23-.26,6.49-.35,9.68-.83,18.5-2.8,37-5.62,55.48-8.58,15.75-2.53,31.46-5.38,47.22-7.83,4.68-.73,7.16-2.6,8.22-7.52,3.19-14.77,7.15-29.37,10.16-44.16C690.49,832.57,688,828.64,685.85,827.37Z" transform="translate(-459.67 -499.61)"/><path class="cls-3" d="M828,745.37c-7.9,12.14-15.45,23.31-33,17.75-2.28-.72-7.2,3.17-9.26,6.09-9.49,13.39-18.4,27.18-27.51,40.84-15,22.5-30,45-46.59,69.88l242.62-38.61L852.6,711C843.78,723.27,835.4,734,828,745.37Z" transform="translate(-459.67 -499.61)"/><path d="M1124.52,814.42c-2.87.45-6.52-.91-9.14-2.53-22.61-14-45-28.32-67.7-42.15-2.22-1.35-6.79-1.13-9,.29-8.8,5.55-17,12.1-25.71,17.76-1.93,1.24-5.91,1.48-7.78.31-29.13-18.05-58.08-36.39-87-54.7q-31-19.56-61.86-39.23c-5.49-3.51-9.24-3.8-13.25,2.66-5.77,9.29-13.61,17.33-19.08,26.77-7.57,13.07-17.41,19.6-32.8,16.71-5.49-1-8.84,2-11.89,6.77C766.45,767.25,753.29,787.18,740,807c-10.62,15.85-6.06,13-22.74,6-25.5-10.71-50.62-22.33-75.83-33.53-30.65,33.76-154.95,207.26-162.24,226.65,1.91.37,3.71.84,5.55,1,14,1.56,27.94,3,41.91,4.57,31.22,3.44,62.43,7,93.66,10.29,25.75,2.73,51.55,5,77.29,7.78,30.68,3.29,61.31,7.09,92,10.3,44.66,4.69,89.37,8.91,134,13.57q64.1,6.7,128.14,14c7.09.82,10.33-1.73,13-8,9.47-22.19,19.45-44.16,29.18-66.24,10.83-24.55,21.09-49.38,32.63-73.59,4.9-10.29,6.91-22.26,18.49-29.23l63.39-90.12Q1166.53,807.82,1124.52,814.42Zm-434.47,20.3c-3,14.79-7,29.39-10.16,44.16-1.06,4.92-3.54,6.79-8.22,7.52-15.76,2.45-31.47,5.3-47.22,7.83-18.48,3-37,5.78-55.48,8.58-3.19.48-6.45.57-9.68.83-.49-.87-1-1.73-1.49-2.6,9.2-8.89,18.45-17.73,27.6-26.66,20.3-19.8,40.67-39.53,60.72-59.58,4.32-4.32,7.59-4.71,12.81-1.63,8.73,5.15,18.15,9.12,26.92,14.2C688,828.64,690.49,832.57,690.05,834.72Zm21.57,45.21c16.58-24.87,31.58-47.38,46.59-69.88,9.11-13.66,18-27.45,27.51-40.84,2.06-2.92,7-6.81,9.26-6.09,17.58,5.56,25.13-5.61,33-17.75C835.4,734,843.78,723.27,852.6,711L954.24,841.32Zm388.15-62c-12.93,2.15-25.86,4.34-38.81,6.43-24.65,4-49.3,8-74,11.72-3.68.54-7.65-.84-11.49-1.33,2.67-2.72,4.92-6.1,8.07-8,18.37-11.37,36.82-22.62,55.58-33.33,3.57-2,9.49-3.35,12.85-1.8,16.32,7.52,32.13,16.13,48.11,24.36C1100,816.61,1099.88,817.28,1099.77,817.94Z" transform="translate(-459.67 -499.61)"/></svg>